<?xml version="1.0" encoding="utf-8"?>
<!-- Generator: Adobe Illustrator 19.2.0, SVG Export Plug-In . SVG Version: 6.00 Build 0)  -->
<svg version="1.1" id="Capa_1" xmlns="http://www.w3.org/2000/svg" xmlns:xlink="http://www.w3.org/1999/xlink" x="0px" y="0px"
	 viewBox="0 0 300 300" style="enable-background:new 0 0 300 300;" xml:space="preserve">
<style type="text/css">
	.st0{fill:#FFFFFF;}
	.st1{fill:#E8E8E8;}
</style>
<rect class="st0" width="300" height="300"/>
<path class="st1" d="M150,179.9c-13,0-23.6-10.6-23.6-23.6s10.6-23.6,23.6-23.6s23.6,10.6,23.6,23.6S163,179.9,150,179.9z M150,139
	c-9.6,0-17.3,7.8-17.3,17.3s7.8,17.3,17.3,17.3s17.3-7.8,17.3-17.3S159.6,139,150,139z M143.7,156.3c0-3.5,2.8-6.3,6.3-6.3
	c1.7,0,3.2-1.4,3.2-3.2c0-1.7-1.4-3.2-3.2-3.2c-7,0-12.6,5.7-12.6,12.6c0,1.7,1.4,3.2,3.2,3.2C142.3,159.5,143.7,158,143.7,156.3z
	 M163.5,112.2c0.7,0,1.2,0.4,1.5,1l4.4,11.6H191c1.7,0,3.2,1.4,3.2,3.2v56.7c0,1.7-1.4,3.2-3.2,3.2h-82c-1.7,0-3.2-1.4-3.2-3.2V128
	c0-1.7,1.4-3.2,3.2-3.2h21.7l4-10.6c0.5-1.2,1.6-2,3-2L163.5,112.2 M163.5,105.9h-25.8c-3.9,0-7.5,2.4-8.8,6.1l-2.4,6.5H109
	c-5.2,0-9.5,4.2-9.5,9.5v56.7c0,5.2,4.2,9.5,9.5,9.5h82c5.2,0,9.5-4.2,9.5-9.5V128c0-5.2-4.2-9.5-9.5-9.5h-17.3l-2.8-7.5
	C169.7,107.9,166.7,105.9,163.5,105.9L163.5,105.9z"/>
</svg>
